<svg id="Layer_1" data-name="Layer 1" xmlns="http://www.w3.org/2000/svg" viewBox="0 0 306.74 262.5"><defs><style>.cls-1{fill:#fd7e14;}</style></defs><path class="cls-1" d="M41.73,188.71c4.73.76,6.35.42,3.9,11.16-4.33,18.92,5.48,13,3.44,23.11-.87,4.22-2.29,14.87,3.12,22.65,8.73,12.55,33.22,10,48.14,6.54l5,19.83a6.14,6.14,0,0,0,6,4.63h93.57a6.14,6.14,0,0,0,5.73-8.33c-.6-4.08-1.34-14.67,2.83-31.5,31.45,1.56,29,32.32,64.43,32.32h9.95a24,24,0,1,0,0-12.27c-7.94-2.05-18.13,6.38-37.85-14.74a55.81,55.81,0,0,0-5-4.93c-8.6-8.5-17.56-11.52-28-12.44a207.06,207.06,0,0,1,10.59-25.3c13.18,3.17,14.93,11.7,32.82,15.48,1.94,9.39,9.36,17.66,21.94,17.66a22.63,22.63,0,0,0,0-45.26c-11.47,0-18.64,6.88-21.29,15.21-12.84-3.42-13.93-10-27.65-14.25a92.81,92.81,0,0,0,8-13.55h0a97.37,97.37,0,0,0,5-12.83h44.36a22.63,22.63,0,1,0,0-12.27H249.32a90.67,90.67,0,0,0-.18-34.85A36.84,36.84,0,0,1,261,109c2.65,8.35,9.81,15.25,21.3,15.25a22.63,22.63,0,0,0,0-45.26c-12.53,0-19.94,8.21-21.91,17.56a44.22,44.22,0,0,0-14.54,5.78,96.66,96.66,0,0,0-10.2-21.18c16.17-10.92,22.71-26.44,42.2-26.44h10A24,24,0,0,0,311,72.63h0a24.05,24.05,0,1,0-23.15-30.21h-10c-26,0-35.89,20.5-49.45,28.66a100.66,100.66,0,0,0-77.52-36.17c-41.22,0-77.48,25.42-94.74,66.55-1.91,4.59-6.09,18-6.26,18.52-2.27,7.19,1.7,12.17,2.46,14.53a2.5,2.5,0,0,1,0,2.09c-17.46,28.49-26.85,33.22-23.26,43.6,2.4,7,8,7.76,12.69,8.51Zm257.48,74.2a11.78,11.78,0,1,1,0,.14s0,0,0-.07,0,0,0-.07Zm-16.87-63.32a10.36,10.36,0,1,1,0,20.72c-7.55,0-10.23-5.59-10.23-10.37s2.68-10.35,10.23-10.35ZM302,155.76a10.36,10.36,0,1,1,10.36,10.37A10.37,10.37,0,0,1,302,155.76ZM282.32,91.23a10.36,10.36,0,1,1,0,20.72c-13.71,0-13.72-20.72,0-20.72Zm16.9-42.7A11.78,11.78,0,1,1,311,60.35a11.79,11.79,0,0,1-11.78-11.82v0ZM62.67,143.18c5.13-8.57-.59-16.26-1-17.81C61,123.8,66.8,107.8,67.58,106c15.21-36.27,47.14-58.81,83.33-58.81a88.39,88.39,0,0,1,64.15,27.41c-7.14.45-24.56,0-45.88.17a22.62,22.62,0,1,0,0,12.27c32.35-.29,45.39.84,55.05-1.09a84.8,84.8,0,0,1,10.95,23.31c-10.45,6-19,3.41-29,4.08a22.61,22.61,0,1,0,0,12.26c8.55-.53,19.31,1.76,31.61-3.92a79,79,0,0,1-.91,28H160.65a22.62,22.62,0,1,0,0,12.26h72.79c-4.85,13.16-7.67,14.65-12.78,24.21-4.66-.31-9.44-.25-14.46-.19a22.63,22.63,0,1,0,0,12.26c.62,0,5.65,0,8.37,0a208.22,208.22,0,0,0-10.39,26.28c-2.54,0-5.15.11-7.89.19-7.85.25-16.71.47-27.05.06a22.66,22.66,0,1,0-.12,12.27c10.58.4,19.57.18,27.54-.06l4.17-.12A104.2,104.2,0,0,0,198,264.35H116.08l-5.35-21.07a6.13,6.13,0,0,0-7.41-4.45c-19.95,4.93-23.25,4.58-35.9,2.61-7.34-1.13-7.82-8.74-6.33-16,1.59-7.83,1.21-11.25-4.44-17.66.16-5.79,9.43-25.17-9.64-30.56-1-.27-5.95-1-6.41-1.31Zm95.18-62.1a9.51,9.51,0,1,1,0-.2s0,.08,0,.13,0,0,0,.06Zm37,38.38v0a10.36,10.36,0,1,1-10.36-10.36,10.37,10.37,0,0,1,10.36,10.36h0Zm-45.57,36.35a10.37,10.37,0,1,1,0-.09.43.43,0,0,0,0,.05v0Zm45.57,36.25a10.36,10.36,0,1,1-10.36-10.36A10.37,10.37,0,0,1,194.89,192.06Zm-37,38.56a10.36,10.36,0,1,1-10.36-10.36A10.37,10.37,0,0,1,157.87,230.62Z" transform="translate(-28.29 -24.53)"/></svg>