<svg id="Layer_1" data-name="Layer 1" xmlns="http://www.w3.org/2000/svg" viewBox="0 0 392.65 359.99"><defs><style>.cls-1,.cls-2{fill:none;stroke:#fd7e14;stroke-linecap:round;stroke-linejoin:round;stroke-width:12px;}.cls-2{fill-rule:evenodd;}</style></defs><path class="cls-1" d="M349.33,148.83a41.62,41.62,0,0,0-41.61-41.6H91a41.62,41.62,0,0,0-41.61,41.6V286.78A41.62,41.62,0,0,0,91,328.39h19L99.38,378.33l64.45-49.94H307.72a41.62,41.62,0,0,0,41.61-41.61Z" transform="translate(-3.69 -24.34)"/><path class="cls-2" d="M190.59,85.79a28.81,28.81,0,1,1,18.17-.2v18.83H190.59Z" transform="translate(-3.69 -24.34)"/><path class="cls-2" d="M50,263.87a27.66,27.66,0,0,1-40.31-24.6V184.9A27.65,27.65,0,0,1,50,160.31Z" transform="translate(-3.69 -24.34)"/><path class="cls-2" d="M350,260.46a27.66,27.66,0,0,0,40.31-24.6V181.49A27.66,27.66,0,0,0,350,156.89Z" transform="translate(-3.69 -24.34)"/><circle class="cls-1" cx="123.02" cy="168.03" r="30.47"/><circle class="cls-1" cx="258.02" cy="167.1" r="30.47"/><path class="cls-1" d="M149.67,254.72s43.13,43.13,94.69-2.81" transform="translate(-3.69 -24.34)"/></svg>