<svg id="Layer_1" data-name="Layer 1" xmlns="http://www.w3.org/2000/svg" viewBox="0 0 313.1 285.4"><defs><style>.cls-1{fill:none;stroke:#fd7e14;stroke-linejoin:round;stroke-width:10px;}</style></defs><path class="cls-1" d="M41.91,82.19H185V33c0-6.44-5.83-11.13-12.31-11.13H51.62c-7.12,0-12.3,5.27-12.3,11.13V82.19Z" transform="translate(-6.47 -16.84)"/><path class="cls-1" d="M266,173.6c-9.71-26.37-32.38-48-61.53-58v97.27c0,15.82-14.24,28.71-31.73,28.71H51.62c-16.84,0-31.09-12.89-31.09-28.71v-9.37c-5.82,9.37-9.06,19.33-9.06,29.88,0,35.16,33,63.87,73.83,63.87H240.73c40.8,0,73.83-28.71,73.83-63.87C314.56,206.42,294.49,183,266,173.6Z" transform="translate(-6.47 -16.84)"/><path class="cls-1" d="M182.44,105.05H39.32v108.4c0,6.44,5.82,11.13,12.3,11.13H172.08c7.13,0,12.31-5.27,12.31-11.13v-109A7,7,0,0,1,182.44,105.05ZM124.8,177.12c0,6.44-5.82,11.13-12.3,11.13-7.12,0-12.31-5.27-12.31-11.13V173.6c0-6.44,5.83-11.13,12.31-11.13,7.12,0,12.3,5.27,12.3,11.13Zm0-41.6c0,6.44-5.82,11.13-12.3,11.13-7.12,0-12.31-5.27-12.31-11.13V132c0-6.45,5.83-11.13,12.31-11.13,7.12,0,12.3,5.27,12.3,11.13Z" transform="translate(-6.47 -16.84)"/></svg>