<?xml version="1.0" encoding="UTF-8" standalone="no"?>
<!DOCTYPE svg PUBLIC "-//W3C//DTD SVG 1.1//EN" "http://www.w3.org/Graphics/SVG/1.1/DTD/svg11.dtd">
<svg width="100%" height="100%" viewBox="0 0 138 127" version="1.1" xmlns="http://www.w3.org/2000/svg" xmlns:xlink="http://www.w3.org/1999/xlink" xml:space="preserve" xmlns:serif="http://www.serif.com/" style="fill-rule:evenodd;clip-rule:evenodd;stroke-linecap:square;stroke-linejoin:round;stroke-miterlimit:1.41421;">
    <g id="Layer1">
        <g transform="matrix(1.46042,0,0,1.22952,40.8185,89.7234)">
            <g>
                <text x="0px" y="0px" style="font-family:'FranklinGothic-Demi', 'Franklin Gothic Demi', sans-serif;font-size:64px;fill:none;stroke:rgb(253,126,20);stroke-width:1.82px;">A</text>
            </g>
        </g>
        <g transform="matrix(1,0,0,1,-0.383556,-1.03928)">
            <g transform="matrix(0.962699,0,0,0.962699,-0.616151,4.31114)">
                <path d="M19.022,47.969L19.022,9.81L56.406,9.81" style="fill:none;stroke:rgb(253,126,20);stroke-width:10.91px;stroke-linecap:butt;stroke-miterlimit:1.5;"/>
            </g>
            <g transform="matrix(0.962699,0,0,-0.962699,-0.616151,124.767)">
                <path d="M19.022,47.969L19.022,9.81L56.406,9.81" style="fill:none;stroke:rgb(253,126,20);stroke-width:10.91px;stroke-linecap:butt;stroke-miterlimit:1.5;"/>
            </g>
            <g transform="matrix(-0.962699,0,0,0.962699,139.383,4.0559)">
                <path d="M19.022,47.969L19.022,9.81L56.406,9.81" style="fill:none;stroke:rgb(253,126,20);stroke-width:10.91px;stroke-linecap:butt;stroke-miterlimit:1.5;"/>
            </g>
            <g transform="matrix(-0.962699,0,0,-0.962699,138.107,125.023)">
                <path d="M19.022,47.969L19.022,9.81L56.406,9.81" style="fill:none;stroke:rgb(253,126,20);stroke-width:10.91px;stroke-linecap:butt;stroke-miterlimit:1.5;"/>
            </g>
        </g>
    </g>
</svg>
