<svg id="Layer_1" data-name="Layer 1" xmlns="http://www.w3.org/2000/svg" viewBox="0 0 303.68 249.44"><defs><style>.cls-1,.cls-2{fill:none;stroke:#fd7e14;stroke-linejoin:round;stroke-width:10px;}.cls-2{stroke-linecap:round;}</style></defs><path class="cls-1" d="M295,43.79H28A13.36,13.36,0,0,0,14.66,57.1V191H308.34V57.1A13.32,13.32,0,0,0,295,43.79Z" transform="translate(-9.66 -38.79)"/><path class="cls-1" d="M180.64,130.6c-1.46,1.46-3.13,3.09-5,4.75a25.58,25.58,0,0,1-5.52,27.71,25.17,25.17,0,0,1-11.6,6.61,4.09,4.09,0,0,1-1,.12,4,4,0,0,1-2.93-1.22,4.16,4.16,0,0,1-1-3.89,17.15,17.15,0,0,0-1.05-11.89c-2.68,1.54-5.32,3-7.87,4.22a4.24,4.24,0,0,1-1.71.37h-.08a86.16,86.16,0,0,1-7.87,12,10,10,0,0,1-4.46,3.57,6.48,6.48,0,0,1-2.31.41,6.55,6.55,0,0,1-2.76-.61,7.67,7.67,0,0,1-3.49-3.81,10.72,10.72,0,0,1-2.56.49,12.3,12.3,0,0,1-10.06-3.13,12,12,0,0,1-3.57-9.61,10.86,10.86,0,0,1,.49-3.41,7.65,7.65,0,0,1-3.77-3.53,6.38,6.38,0,0,1-.25-5,10.61,10.61,0,0,1,3.57-4.5A84.85,84.85,0,0,1,117,132.87a4.08,4.08,0,0,1-.33-4c1.22-2.56,2.68-5.19,4.22-7.87A17.17,17.17,0,0,0,109,120a4.06,4.06,0,0,1-3.94-1,4.15,4.15,0,0,1-1.09-3.89,25,25,0,0,1,6.61-11.57,25.56,25.56,0,0,1,27.67-5.59c1.5-1.63,3-3.25,4.78-5a89.86,89.86,0,0,1,22.92-16.35,10.15,10.15,0,0,0,.37,2.27,40.85,40.85,0,0,0,29,28.56,9.84,9.84,0,0,0,1.83.2A89.23,89.23,0,0,1,180.64,130.6Z" transform="translate(-9.66 -38.79)"/><path class="cls-1" d="M208.55,84.39c-.85,2.92-1.86,5.93-3,8.85a4.05,4.05,0,0,1-3.77,2.63,4.79,4.79,0,0,1-1.06-.12A32.81,32.81,0,0,1,177.84,73a4,4,0,0,1,2.44-4.82,93,93,0,0,1,8.92-3,108,108,0,0,1,18.9-4,4.13,4.13,0,0,1,3.21,1.17,4,4,0,0,1,1.18,3.25A100.94,100.94,0,0,1,208.55,84.39Z" transform="translate(-9.66 -38.79)"/><path class="cls-1" d="M303.89,206.12H19.11a4.46,4.46,0,0,0-4.45,4.45v28.21A13.36,13.36,0,0,0,28,252.09h93.67l-10.15,22.25H100.85a4.45,4.45,0,1,0,0,8.89H219a4.45,4.45,0,1,0,0-8.89H208.36l-10.15-22.25H295a13.32,13.32,0,0,0,13.3-13.31V210.57A4.43,4.43,0,0,0,303.89,206.12Z" transform="translate(-9.66 -38.79)"/><path class="cls-2" d="M184.75,226.06a4.74,4.74,0,0,0-4.74-4.74H143.76a4.74,4.74,0,0,0-4.74,4.74v9.48a4.74,4.74,0,0,0,4.74,4.74H180a4.75,4.75,0,0,0,4.74-4.74Z" transform="translate(-9.66 -38.79)"/></svg>